<?xml version="1.0" standalone="no"?>
<!DOCTYPE svg PUBLIC "-//W3C//DTD SVG 20010904//EN"
 "http://www.w3.org/TR/2001/REC-SVG-20010904/DTD/svg10.dtd">
<svg version="1.0" xmlns="http://www.w3.org/2000/svg"
 width="512.000000pt" height="512.000000pt" viewBox="0 0 512.000000 512.000000"
 preserveAspectRatio="xMidYMid meet">
<metadata>
Created by potrace 1.14, written by Peter Selinger 2001-2017
</metadata>
<g transform="translate(0.000000,512.000000) scale(0.100000,-0.100000)"
fill="#000000" stroke="none">
<path d="M2300 5109 c-65 -7 -128 -16 -167 -23 -11 -3 -38 -7 -59 -10 -22 -4
-55 -11 -74 -16 -19 -5 -44 -11 -55 -13 -130 -24 -412 -131 -583 -223 -140
-75 -289 -173 -412 -271 -211 -168 -476 -474 -596 -688 -48 -85 -109 -205
-139 -274 -33 -75 -117 -302 -115 -309 1 -1 -5 -26 -13 -55 -20 -69 -44 -181
-52 -237 -3 -25 -8 -53 -11 -62 -3 -9 -8 -27 -12 -40 -3 -13 -8 -668 -9 -1456
l-4 -1433 1408 4 c774 2 1419 6 1433 9 14 4 48 9 75 13 93 12 120 17 185 31
138 31 290 78 407 125 152 62 243 108 421 214 187 111 462 355 618 549 136
168 295 430 363 596 12 30 26 64 32 75 45 97 125 384 145 525 2 19 6 44 9 55
20 94 27 479 12 625 -18 172 -43 299 -92 464 -196 663 -642 1210 -1255 1539
-172 92 -403 181 -580 223 -99 23 -233 47 -324 58 -118 14 -447 17 -556 5z"/>
</g>
</svg>
